<svg viewBox="0 0 800 800" version="1.1" xmlns="http://www.w3.org/2000/svg" xmlns:xlink="http://www.w3.org/1999/xlink" xml:space="preserve" xmlns:serif="http://www.serif.com/" style="fill-rule:evenodd;clip-rule:evenodd;stroke-linejoin:round;stroke-miterlimit:2;">
    <g transform="matrix(1,0,0,1,265.984,218.87)">
        <g id="contents">
            <path d="M0,362.261C0.047,362.378 0.094,362.495 0.141,362.611C0.141,362.611 0.107,362.495 0,362.261M-0.042,362.157C0.636,363.378 5.381,371.263 24.117,389.818C64.858,430.159 118.159,438.628 155.698,438.63C201.852,438.63 238.244,426.413 248.639,420.497C296.807,393.079 308.291,303.224 308.4,302.32C311.338,277.943 321.232,239.581 330.459,216.814L370.736,117.428C378.014,99.469 373.908,82.702 367.885,79.051C366.783,78.382 365.375,78.043 363.703,78.043C356.891,78.043 345.818,83.699 337.6,96.118L289.777,168.386C281.01,181.637 273.822,187.292 265.744,187.294L265.74,187.294C261.084,187.294 256.719,185.208 253.76,181.57C249.002,175.718 248.271,166.98 251.322,152.35L280.398,12.891C283.686,-2.871 276.887,-19.041 265.85,-21.713C264.77,-21.974 263.65,-22.107 262.525,-22.107C252.1,-22.107 241.57,-11.584 238.032,2.371L200.485,150.478C197.806,161.047 193.756,177.018 180.339,177.027L180.331,177.027C176.687,177.027 167.92,175.586 165.014,162.283C164.142,158.296 163.653,153.047 163.519,146.236L159.713,-46.306C159.39,-62.602 148.334,-76.369 135.569,-76.369C122.756,-76.369 111.56,-62.563 111.12,-46.22L106.135,139.055C105.947,146.061 105.324,151.488 104.232,155.643C100.756,168.865 91.326,169.896 88.518,169.898L88.511,169.898C74.941,169.899 69.941,153.194 67.253,144.218L26.576,8.376C22.39,-5.601 10.751,-16.14 -0.498,-16.14C-1.765,-16.14 -3.014,-15.997 -4.212,-15.715C-9.788,-14.401 -13.275,-10.352 -15.218,-7.186C-19.409,-0.36 -20.598,9.118 -18.401,18.169L29.183,214.136C32.479,227.71 31.33,238.179 25.769,245.253C21.794,250.31 15.928,253.095 9.25,253.095C1.861,253.097 -6.343,249.634 -15.132,242.806L-57.578,209.825C-63.145,205.501 -70.154,203.118 -77.314,203.118C-86.385,203.118 -94.72,206.827 -100.183,213.296C-104.868,218.843 -107.091,226.005 -106.445,233.466C-105.752,241.476 -101.914,248.777 -95.639,254.027L-52.34,290.253C-32.644,306.732 -9.756,338.22 -0.042,362.157M155.703,464.63L155.698,464.63C113.28,464.628 52.845,454.855 5.823,408.292C-17.205,385.49 -22.701,375.509 -23.996,372.277C-31.964,352.378 -52.584,323.948 -69.024,310.195L-112.323,273.968C-123.942,264.247 -131.054,250.659 -132.349,235.708C-133.596,221.306 -129.227,207.388 -120.046,196.519C-109.632,184.191 -94.057,177.118 -77.314,177.118C-64.406,177.118 -51.731,181.443 -41.625,189.294L0.82,222.275C2.376,223.484 3.709,224.392 4.826,225.072C4.664,223.773 4.382,222.187 3.917,220.271L-43.667,24.304C-47.52,8.435 -45.227,-8.001 -37.376,-20.789C-30.978,-31.21 -21.318,-38.396 -10.176,-41.022C-7.027,-41.764 -3.771,-42.14 -0.498,-42.14C22.151,-42.14 44.012,-24.032 51.483,0.918L81.175,100.073L85.129,-46.92C85.952,-77.495 108.579,-102.369 135.569,-102.369C162.609,-102.369 185.102,-77.45 185.707,-46.82L188.454,92.133L212.829,-4.019C219.307,-29.565 240.206,-48.107 262.525,-48.107C265.709,-48.107 268.887,-47.729 271.967,-46.983C296.887,-40.95 312.086,-11.71 305.852,18.197L281.869,133.224L315.918,81.77C327.867,63.712 346.625,52.043 363.703,52.043C370.197,52.043 376.139,53.65 381.365,56.818C400.264,68.277 406.18,99.19 394.832,127.193L354.555,226.577C346.191,247.218 336.877,283.331 334.213,305.439C333.705,309.659 321.076,409.181 261.5,443.093C246.293,451.751 205.565,464.63 155.703,464.63" style="fill:#a5dbf0;fill-rule:nonzero;"/>
        </g>
    </g>
</svg>
