<svg viewBox="0 0 800 800" version="1.1" xmlns="http://www.w3.org/2000/svg" xmlns:xlink="http://www.w3.org/1999/xlink" xml:space="preserve" xmlns:serif="http://www.serif.com/" style="fill-rule:evenodd;clip-rule:evenodd;stroke-linejoin:round;stroke-miterlimit:2;">
    <g transform="matrix(1,0,0,1,588.374,228.388)">
        <g id="contents">
            <path d="M0,343.225C-13.628,370.05 -30.369,387.238 -48.41,392.934C-84.014,404.171 -142.183,393.684 -142.757,393.579C-147.78,392.653 -152.771,393.946 -156.58,397.336C-157.575,398.158 -176.281,413.26 -209.261,418.672C-254.316,426.066 -305.893,412.097 -358.41,378.272C-399.17,352.018 -422.004,316.705 -426.277,273.316C-431.249,222.829 -409.639,173.53 -391.429,147.883C-387.716,142.655 -384.143,138.386 -380.967,135.316C-377.315,131.786 -372.557,128.593 -366.779,125.755C-351.635,118.316 -329.448,113.325 -301.631,111.095C-298.118,110.813 -294.523,110.572 -290.833,110.378C-284.383,110.041 -277.671,109.839 -270.705,109.779C-269.713,109.77 -268.729,109.768 -267.743,109.765C-263.561,109.753 -259.433,109.79 -255.386,109.867C-227.238,110.407 -203.088,112.894 -192.716,114.113C-189.305,114.515 -187.382,114.778 -187.298,114.79C-186.218,114.942 -185.428,114.999 -184.356,114.936C-183.868,114.936 -181.159,114.953 -177.431,115.632C-174.406,116.184 -170.714,117.17 -166.976,118.95C-164.333,120.206 -161.957,121.72 -159.836,123.491C-153.348,128.91 -149.271,136.77 -147.458,147.304C-145.999,155.776 -145.778,163.12 -146.834,169.441C-149.45,185.086 -159.937,194.434 -179.162,198.866C-197.683,203.134 -261.464,204.101 -284.477,204.115C-290.879,204.118 -296.703,207.818 -299.424,213.613C-302.146,219.407 -301.276,226.252 -297.191,231.181C-288.495,241.674 -271.482,268.403 -274.398,284.044C-279.146,309.512 -299.185,326.041 -299.696,326.456C-306.816,332.108 -308.034,342.459 -302.408,349.612C-296.767,356.784 -286.376,358.028 -279.205,352.384C-277.977,351.416 -249.028,328.271 -241.911,290.1C-238.521,271.914 -245.742,252.192 -253.969,236.829C-226.393,236.285 -188.141,234.848 -171.74,231.068C-141.737,224.152 -122.569,206.887 -115.873,181.913C-113.452,182.241 -110.999,182.447 -108.514,182.506C-107.986,182.518 -107.46,182.524 -106.935,182.524C-88.883,182.524 -71.564,175.266 -58.172,162.086C-56.896,160.83 -55.685,159.522 -54.509,158.188C-44.146,174.522 -27.22,186.331 -7.421,188.897C-4.757,189.241 -2.045,189.416 0.642,189.416C10.989,189.416 20.933,186.862 29.847,182.329C32.765,237.847 22.194,299.545 0,343.225M-389.258,-50.782C-383.267,-58.71 -374.435,-63.74 -364.388,-64.944L-351.63,-66.474C-350.117,-66.656 -348.589,-66.747 -347.086,-66.747C-328.02,-66.747 -312.469,-52.325 -310.913,-33.198L-301.869,77.958C-332.969,80.253 -358.231,85.727 -377.469,94.332L-396.089,-22.989C-397.675,-32.982 -395.249,-42.853 -389.258,-50.782M-264.125,-64.048C-257.636,-71.576 -248.499,-76.026 -238.395,-76.582L-225.564,-77.287C-224.859,-77.326 -224.147,-77.345 -223.445,-77.345C-203.388,-77.345 -187.411,-61.583 -187.072,-41.46L-185.005,81.759C-193.577,80.661 -224.973,76.975 -262.146,76.727L-272.73,-36.754C-273.67,-46.828 -270.614,-56.521 -264.125,-64.048M-136.176,-47.415C-129.316,-54.373 -120.077,-58.205 -110.159,-58.205C-109.854,-58.205 -109.547,-58.201 -109.24,-58.194L-96.395,-57.889C-86.28,-57.65 -77.009,-53.486 -70.287,-46.166C-63.566,-38.844 -60.209,-29.251 -60.834,-19.153L-68.899,111.233C-70.204,132.321 -87.266,149.477 -106.935,149.477C-107.199,149.477 -107.465,149.474 -107.732,149.469C-109.827,149.419 -111.889,149.157 -113.904,148.722C-114.165,146.414 -114.481,144.079 -114.892,141.696C-119.283,116.187 -132.255,101.697 -144.94,93.485L-146.596,-21.182C-146.738,-31.136 -143.038,-40.453 -136.176,-47.415M5.831,-7.552C7.212,-7.552 8.619,-7.461 10.014,-7.28L22.928,-5.607C31.517,-4.495 39.045,-0.118 44.124,6.72C49.203,13.557 51.221,22.029 49.806,30.574L39.371,93.547L33.823,127.033C32.729,133.626 29.731,139.643 25.512,144.491C19.201,151.74 10.157,156.37 0.642,156.37C-0.63,156.37 -1.915,156.287 -3.177,156.123C-20.373,153.895 -33.676,136.563 -32.224,118.275L-24.475,20.69C-23.197,4.59 -10.169,-7.552 5.831,-7.552M70.652,-12.986C60.177,-27.087 44.735,-36.107 27.172,-38.381L14.257,-40.054C11.461,-40.415 8.626,-40.599 5.831,-40.599C-6.762,-40.599 -18.469,-37.01 -28.314,-30.752C-30.147,-44.81 -36.188,-57.889 -45.943,-68.515C-58.796,-82.514 -76.436,-90.474 -95.612,-90.927L-108.458,-91.231C-127.934,-91.691 -146.197,-84.321 -159.711,-70.613C-159.922,-70.4 -160.116,-70.175 -160.324,-69.961C-163.804,-77.58 -168.655,-84.566 -174.777,-90.574C-187.801,-103.354 -205.084,-110.392 -223.445,-110.392C-224.749,-110.392 -226.071,-110.356 -227.378,-110.285L-240.208,-109.579C-259.363,-108.527 -276.746,-100.02 -289.155,-85.626C-291.519,-82.883 -293.642,-79.992 -295.522,-76.979C-308.199,-91.088 -326.578,-99.794 -347.086,-99.794C-349.898,-99.794 -352.75,-99.624 -355.563,-99.286L-368.322,-97.756C-387.369,-95.474 -404.168,-85.866 -415.625,-70.704C-427.081,-55.541 -431.734,-36.755 -428.728,-17.81L-408.25,111.209C-408.037,112.558 -407.775,113.889 -407.491,115.211C-433.987,143.703 -465.787,209.301 -459.165,276.555C-453.928,329.732 -425.275,374.513 -376.304,406.054C-318.657,443.183 -269.864,453.617 -233.233,453.616C-221.328,453.616 -210.703,452.513 -201.481,450.866C-171.823,445.573 -151.362,433.945 -141.537,427.254C-123.148,429.992 -73.949,435.649 -38.462,424.448C-11.766,416.021 11.723,393.111 29.463,358.195C46.758,324.155 58.315,279.424 62.006,232.243C64.194,204.281 63.477,176.929 60.074,151.879C63.099,145.862 65.282,139.331 66.425,132.435L82.406,35.975C85.303,18.503 81.128,1.115 70.652,-12.986" style="fill:#a5dbf0;fill-rule:nonzero;"/>
        </g>
    </g>
</svg>
