<svg viewBox="0 0 800 800" version="1.1" xmlns="http://www.w3.org/2000/svg" xmlns:xlink="http://www.w3.org/1999/xlink" xml:space="preserve" xmlns:serif="http://www.serif.com/" style="fill-rule:evenodd;clip-rule:evenodd;stroke-linejoin:round;stroke-miterlimit:2;">
    <g transform="matrix(1,0,0,1,462.489,451.034)">
        <g id="contents">
            <path d="M0,-102.068C4.467,-111.531 13.651,-117.409 23.97,-117.409C28.276,-117.409 32.451,-116.375 36.376,-114.337L45.082,-109.814C51.64,-106.407 56.383,-100.7 58.437,-93.745C60.492,-86.79 59.609,-79.422 55.955,-72.998L6.615,13.73C3.092,19.923 -2.566,24.659 -9.022,27.184C-6.977,18.709 -6.786,9.166 -8.505,-1.403C-10.433,-13.26 -14.882,-22.268 -20.566,-29.043C-23.533,-32.576 -26.837,-35.495 -30.295,-37.893L-12.658,-75.255L0,-102.068ZM-226.661,-306.132L-226.159,-306.252C-224.128,-306.73 -222.044,-306.973 -219.967,-306.973C-207.401,-306.973 -196.064,-298.2 -193.01,-286.111L-146.477,-101.943C-144.81,-95.339 -139.733,-75.246 -123.525,-75.247L-123.519,-75.247C-106.834,-75.253 -102.398,-95.966 -100.939,-102.774L-61.756,-285.718C-59.059,-298.314 -47.701,-307.457 -34.748,-307.457C-32.974,-307.457 -31.186,-307.278 -29.443,-306.928L-28.905,-306.82C-14.353,-303.895 -4.174,-289.064 -6.68,-274.433L-39.33,-83.66L-56.461,-47.37C-58.357,-47.548 -60.146,-47.615 -61.772,-47.578C-65.685,-47.687 -93.025,-48.299 -124.815,-45.036C-154.839,-41.955 -179,-36.425 -197.081,-28.537L-247.748,-273.064C-250.758,-287.586 -241.104,-302.729 -226.661,-306.132M90.079,113.049C76.776,150.39 55.738,178.21 35.174,185.657C3.376,197.17 -27.989,191.484 -28.266,191.433C-31.371,190.832 -34.545,191.291 -37.337,192.773C-37.523,192.869 -56.323,202.522 -84.208,204.881C-121.034,207.998 -155.774,197.553 -187.491,173.842C-215.69,152.762 -223.338,118.894 -224.787,94.195C-226.394,66.834 -220.916,40.546 -213.214,23.351C-210.261,16.757 -206.984,11.506 -203.65,8.042C-203.38,7.763 -203.111,7.48 -202.841,7.223C-199.737,4.278 -195.83,1.641 -191.319,-0.725C-160.056,-17.115 -99.352,-20.281 -69.211,-20.007C-66.658,-19.984 -64.315,-19.937 -62.237,-19.872C-61.923,-19.86 -61.609,-19.861 -61.295,-19.873C-61.25,-19.873 -58.374,-19.876 -54.589,-18.886C-53.348,-18.562 -52.014,-18.131 -50.644,-17.557C-50.394,-17.453 -50.143,-17.35 -49.891,-17.235C-46.996,-15.921 -44.546,-14.177 -42.522,-11.994C-40.939,-10.287 -39.625,-8.298 -38.56,-6.039C-37.314,-3.396 -36.409,-0.38 -35.853,3.044C-34.573,10.917 -34.776,17.407 -36.549,22.663C-38.106,27.283 -40.882,30.947 -44.931,33.758C-48.464,36.213 -52.963,38.023 -58.484,39.242C-58.638,39.275 -58.806,39.313 -58.966,39.348C-69.792,41.74 -94.14,47.156 -112.587,51.263C-125.645,54.17 -135.745,56.419 -135.988,56.474C-141.084,57.61 -145.11,61.513 -146.4,66.574C-147.69,71.633 -146.026,76.988 -142.096,80.424C-141.928,80.571 -125.443,95.569 -128.765,113.332C-131.177,126.226 -144.061,139.757 -148.835,143.897C-154.628,148.879 -155.295,157.614 -150.32,163.417C-145.34,169.228 -136.594,169.899 -130.785,164.919C-128.727,163.156 -113.448,149.643 -105.482,131.138C-103.75,127.112 -102.357,122.855 -101.529,118.424C-98.596,102.737 -103.078,89.034 -108.783,78.801C-89.861,74.589 -63.491,68.722 -52.512,66.297C-43.202,64.243 -35.208,60.837 -28.599,56.15C-25.62,56.659 -22.593,56.93 -19.55,56.93C-14.499,56.93 -9.536,56.25 -4.762,54.961C-4.629,57.416 -4.331,59.854 -3.868,62.257C-1.261,75.813 6.492,88.207 18.612,95.921C26.601,101.005 35.936,103.692 45.609,103.692C63.208,103.692 79.699,95.036 89.724,80.536L101.488,63.519C99.809,79.501 96.002,96.422 90.079,113.049M119.239,-10.879L119.184,-10.799L109.831,2.73L99.65,17.453L66.933,64.779C62.154,71.691 53.983,75.985 45.609,75.985C41.214,75.985 37.023,74.794 33.488,72.545C24.138,66.595 20.512,53.869 24.445,43.064C24.957,41.658 25.592,40.282 26.363,38.96L72.757,-40.461C76.88,-47.516 84.144,-51.73 92.189,-51.73C96.469,-51.73 100.689,-50.484 104.396,-48.125L112.784,-42.786C118.074,-39.42 121.659,-34.246 122.877,-28.221C124.098,-22.198 122.804,-16.037 119.239,-10.879M150.036,-33.715C147.312,-47.19 139.364,-58.713 127.662,-66.161L119.273,-71.5C111.113,-76.693 101.747,-79.438 92.189,-79.438C90.364,-79.438 88.553,-79.332 86.76,-79.132C87.757,-86.57 87.198,-94.186 85.011,-101.592C80.803,-115.839 71.159,-127.49 57.856,-134.402L49.148,-138.924C41.352,-142.975 32.644,-145.117 23.97,-145.117C14.721,-145.117 5.924,-142.828 -1.809,-138.643L20.633,-269.759C25.685,-299.274 5.911,-328.086 -23.437,-333.983L-23.975,-334.091C-27.52,-334.803 -31.144,-335.165 -34.748,-335.165C-60.681,-335.165 -83.434,-316.81 -88.851,-291.521L-124.152,-126.695L-166.146,-292.899C-172.361,-317.5 -194.493,-334.681 -219.967,-334.681C-224.182,-334.681 -228.403,-334.19 -232.522,-333.219L-233.024,-333.1C-262.182,-326.229 -280.959,-296.775 -274.88,-267.442L-222.096,-12.694C-242.25,6.634 -255.009,52.196 -252.448,95.818C-249.912,139.024 -232.735,174.615 -204.082,196.035C-164.621,225.536 -125.759,233.097 -96.293,233.097C-90.672,233.096 -85.39,232.822 -80.513,232.369C-55.59,230.066 -36.903,222.949 -28.804,219.366C-17.369,220.847 13.017,223.148 44.605,211.71C59.918,206.166 74.304,194.611 87.362,177.367C98.752,162.325 108.716,143.301 116.181,122.346C126.48,93.435 133.331,56.587 129.029,23.682L142.03,4.877C149.918,-6.533 152.762,-20.239 150.036,-33.715" style="fill:#a5dbf0;fill-rule:nonzero;"/>
        </g>
    </g>
</svg>
